<?xml version="1.0" encoding="utf-8"?>
<!-- Generator: Adobe Illustrator 19.0.0, SVG Export Plug-In . SVG Version: 6.00 Build 0)  -->
<svg version="1.1" id="Layer_1" xmlns="http://www.w3.org/2000/svg" xmlns:xlink="http://www.w3.org/1999/xlink" x="0px" y="0px"
	 viewBox="0 0 450 315" style="enable-background:new 0 0 450 315;" xml:space="preserve">
<style type="text/css">
	.st0{fill:#E5E5E5;}
	.st1{fill:#FFFFFF;}
	.st2{fill:#6ADB7F;}
	.st3{fill:#999999;}
	.st4{fill:#666666;}
	.st5{fill:#777777;}
	.st6{fill:#13D8CE;}
</style>
<g>
	<path id="XMLID_32_" class="st0" d="M0,225.7C0,291.4,87.8,314,231,314s219-94.6,219-160.3s-75.9-77.7-219-77.7S0,159.9,0,225.7z"
		/>
	<path id="XMLID_31_" class="st1" d="M408,232c0,2-1.6,3.5-3.5,3.5H46.5c-2,0-3.5-1.6-3.5-3.5V14c0-2,1.6-3.5,3.5-3.5h357.9
		c2,0,3.5,1.6,3.5,3.5V232z"/>
	<path id="XMLID_30_" class="st2" d="M190.2,45.3H80.4c-1.7,0-3-1.3-3-3V30.2c0-1.7,1.3-3,3-3h109.8c1.7,0,3,1.3,3,3v12.1
		C193.2,43.9,191.8,45.3,190.2,45.3z"/>
	<rect id="XMLID_29_" x="77.4" y="67.9" class="st0" width="153.5" height="9"/>
	<rect id="XMLID_28_" x="249" y="45.3" class="st3" width="3.6" height="121.9"/>
	<rect id="XMLID_27_" x="77.4" y="85.9" class="st0" width="153.5" height="9"/>
	<rect id="XMLID_26_" x="77.4" y="104" class="st0" width="153.5" height="9"/>
	<rect id="XMLID_25_" x="77.4" y="122" class="st0" width="153.5" height="9"/>
	<rect id="XMLID_24_" x="77.4" y="140.1" class="st0" width="153.5" height="9"/>
	<rect id="XMLID_23_" x="77.4" y="158.2" class="st0" width="103.6" height="9"/>
	<rect id="XMLID_22_" x="272.1" y="67.9" class="st0" width="78.2" height="9"/>
	<rect id="XMLID_21_" x="287" y="27" class="st0" width="15.2" height="13.7"/>
	<rect id="XMLID_20_" x="308.1" y="27" class="st0" width="15.2" height="13.7"/>
	<rect id="XMLID_19_" x="272.1" y="85.9" class="st0" width="78.2" height="9"/>
	<rect id="XMLID_18_" x="272.1" y="104" class="st0" width="40.7" height="9"/>
	<path id="XMLID_17_" class="st3" d="M164.6,191.1l-5,8.7c-0.4,0.7,0.1,1.5,0.9,1.5h10.1c0.8,0,1.3-0.8,0.9-1.5l-5-8.7
		C166,190.5,165,190.5,164.6,191.1z"/>
	<path id="XMLID_16_" class="st3" d="M166.3,215.5l5-8.7c0.4-0.7-0.1-1.5-0.9-1.5h-10.1c-0.8,0-1.3,0.8-0.9,1.5l5,8.7
		C165,216.2,166,216.2,166.3,215.5z"/>
	<g>
		<path class="st4" d="M282,37.5c0,1.7-1.3,2.7-3.1,2.9v2.1h-1.7v-2.1c-1.3-0.2-2.5-0.7-3.4-1.5l0.9-1.8c1,0.9,2.4,1.5,3.5,1.5
			c0.9,0,1.5-0.3,1.5-0.9c0-1.9-5.2-0.8-5.2-4.3c0-1.5,1.1-2.5,2.8-2.8v-2h1.7v2c1.1,0.1,2.2,0.5,3.1,1l-0.9,1.8c-1-0.6-2.3-1-3.1-1
			c-0.7,0-1.3,0.3-1.3,0.8C276.8,34.9,282,33.9,282,37.5z"/>
	</g>
	<g>
		<path class="st4" d="M305.4,39.4c0,0.3-0.1,0.6-0.3,0.9l-0.9,1.4h-1.1l0.6-1.4c-0.3-0.2-0.4-0.5-0.4-0.9c0-0.6,0.5-1.1,1.1-1.1
			C304.9,38.3,305.4,38.7,305.4,39.4z"/>
	</g>
	<path class="st5" d="M400.8,1.5H46.6C39.5,1.5,34,7,34,14.1v215.8c0,7.1,5.5,13.6,12.6,13.6H201v7.6c0,12.3-9.6,22.4-21.8,22.4
		h-1.9c-1.3,0-2.3,2-2.3,3h97.3c0-1-1.1-3-2.3-3h-1.9c-12.3,0-21.1-10.1-21.1-22.4v-7.6h153.8c7.1,0,13.2-6.5,13.2-13.6V14.1
		C414,7,407.9,1.5,400.8,1.5z M405,231c0,1.9-1.6,3.5-3.5,3.5h-354c-1.9,0-3.5-1.6-3.5-3.5V15c0-1.9,1.6-3.5,3.5-3.5h354
		c1.9,0,3.5,1.6,3.5,3.5V231z"/>
	<path id="XMLID_11_" class="st5" d="M271.3,281.5H176c-0.6,0-1-0.4-1-1V278h97.3v2.5C272.3,281.1,271.9,281.5,271.3,281.5z"/>
	<g>
		<path id="XMLID_10_" class="st2" d="M114.9,202.9c-1.5,0-2.5,1.2-2.6,3c0,1.8,1,3,2.6,3c1.5,0,2.5-1.2,2.5-3
			C117.4,204.1,116.4,202.9,114.9,202.9z"/>
		<path id="XMLID_9_" class="st2" d="M96.5,202c0-0.9-0.7-1.5-1.8-1.5H92v3h2.7C95.8,203.5,96.5,202.9,96.5,202z"/>
		<path id="XMLID_8_" class="st2" d="M94.7,205.5H92v4h2.7c1.4,0,2.3-1,2.3-2C97,206.5,96.1,205.5,94.7,205.5z"/>
		<path class="st2" d="M131,193.2c0-1.5-1.2-2.7-2.7-2.7H79.7c-1.5,0-2.7,1.2-2.7,2.7v21.6c0,1.5,1.2,2.7,2.7,2.7h48.6
			c1.5,0,2.7-1.2,2.7-2.7V193.2z M95.2,212.5H88v-15h6.9c3.3,0,5.4,1.1,5.4,3.3c0,1.6-1,2.6-2.5,3.1c1.9,0.4,3,2.2,3,4.1
			C100.9,210.5,98.7,212.5,95.2,212.5z M107,212.5h-4v-12h4V212.5z M104.9,198.8c-1.1,0-1.9-0.8-1.9-1.9c0-1.1,0.8-1.9,1.9-1.9
			c1.1,0,1.9,0.8,1.9,1.9C106.8,198,106,198.8,104.9,198.8z M122,212.5h-4V210c0,1.1-2.3,1.6-3.7,1.6c-3.2,0-5.5-2.4-5.5-5.9
			c0-3.5,2.3-5.8,5.5-5.8c1.5,0,3.7,0.6,3.7,1.6v-5.2h4V212.5z"/>
	</g>
	<polygon id="XMLID_2_" class="st2" points="211.3,194.4 214.3,200.4 220.9,201.3 216.1,206 217.3,212.6 211.3,209.5 205.4,212.6 
		206.5,206 201.8,201.3 208.4,200.4 	"/>
	<g id="XMLID_46_">
		<path id="XMLID_47_" class="st6" d="M228.2,207.1l-0.7,1.8h-2.6l4.2-9.8h2.6l4.1,9.8h-2.7l-0.7-1.8H228.2z M230.4,201.5l-1.4,3.6
			h2.8L230.4,201.5z"/>
		<path id="XMLID_50_" class="st6" d="M245,205.1c0,2.3-1.4,3.8-3.5,3.8c-1,0-1.8-0.4-2.3-1.1v3.7h-2.4v-10.3h2.4v1
			c0.5-0.7,1.3-1.1,2.3-1.1C243.6,201.2,245,202.8,245,205.1z M242.6,205.1c0-1.1-0.7-2-1.7-2c-1,0-1.7,0.8-1.7,2c0,1.2,0.7,2,1.7,2
			C241.9,207,242.6,206.2,242.6,205.1z"/>
		<path id="XMLID_53_" class="st6" d="M254.6,205.1c0,2.3-1.4,3.8-3.5,3.8c-1,0-1.8-0.4-2.3-1.1v3.7h-2.4v-10.3h2.4v1
			c0.5-0.7,1.3-1.1,2.3-1.1C253.2,201.2,254.6,202.8,254.6,205.1z M252.2,205.1c0-1.1-0.7-2-1.7-2c-1,0-1.7,0.8-1.7,2
			c0,1.2,0.7,2,1.7,2C251.5,207,252.2,206.2,252.2,205.1z"/>
		<path id="XMLID_56_" class="st6" d="M256,208.9v-10.4h2.4v10.4H256z"/>
		<path id="XMLID_58_" class="st6" d="M264.4,209.6c-0.6,1.4-1.5,2-2.9,2c-0.8,0-1.5-0.3-2.2-0.8l1-1.7c0.4,0.3,0.6,0.4,1,0.4
			c0.4,0,0.7-0.2,0.9-0.6l0.2-0.4l-3.1-7.4h2.5l1.8,5l1.6-5h2.4L264.4,209.6z"/>
	</g>
</g>
</svg>
