<svg width="40" height="40" viewBox="0 0 40 40" xmlns="http://www.w3.org/2000/svg">
  <g fill="none" fill-rule="evenodd">
    <path d="M0 0h40v40H0z"/>
    <rect fill="#ffffff" y="4" width="39.786" height="32" rx="3.333"/>
    <path d="M0 33.096L8.731 17.56a1.667 1.667 0 0 1 2.83-.121l7.328 10.758a1.667 1.667 0 0 0 2.533.262l5.447-5.243a1.667 1.667 0 0 1 2.285-.024l10.739 9.903c-.194.894-.491 1.554-.891 1.979-.4.424-1.054.775-1.963 1.053H2.964c-.792-.184-1.444-.513-1.957-.986C.494 34.668.158 33.986 0 33.096z" fill="#07b107"/>
    <circle fill="#f9ca24" cx="29.583" cy="11.75" r="3.75"/>
  </g>
</svg>
