<?xml version="1.0" encoding="utf-8"?>
<!-- Generator: Adobe Illustrator 19.0.0, SVG Export Plug-In . SVG Version: 6.00 Build 0)  -->
<svg version="1.1" id="Layer_1" xmlns="http://www.w3.org/2000/svg" xmlns:xlink="http://www.w3.org/1999/xlink" x="0px" y="0px"
	 viewBox="0 0 450 422" style="enable-background:new 0 0 450 422;" xml:space="preserve">
<style type="text/css">
	.st0{fill:#E5E5E5;}
	.st1{fill:#777777;}
	.st2{fill:#FFFFFF;}
	.st3{fill:#6ADB7F;}
	.st4{fill:#13D8CE;}
</style>
<g>
	<path id="XMLID_63_" class="st0" d="M343.6,389.3c-111.3,62.6-245.5,32-308.3-79.8S-6.2,107.6,105.1,45.1s192.6-68.1,255.5,43.6
		S454.9,326.7,343.6,389.3z"/>
	
		<rect id="XMLID_62_" x="165.4" y="66.2" transform="matrix(0.7071 0.7071 -0.7071 0.7071 230.9946 -128.3194)" class="st1" width="210" height="297"/>
	<rect id="XMLID_61_" x="79.4" y="66.2" class="st2" width="210" height="297"/>
	<rect id="XMLID_60_" x="107.6" y="187.1" class="st0" width="153.5" height="9"/>
	<rect id="XMLID_59_" x="107.6" y="205.2" class="st0" width="153.5" height="9"/>
	<rect id="XMLID_58_" x="107.6" y="223.2" class="st0" width="153.5" height="9"/>
	<rect id="XMLID_57_" x="128.7" y="123.1" class="st0" width="123.9" height="5"/>
	<rect id="XMLID_56_" x="128.7" y="141.2" class="st0" width="132.5" height="5"/>
	<rect id="XMLID_55_" x="128.7" y="159.3" class="st0" width="108.4" height="5"/>
	<rect id="XMLID_54_" x="107.6" y="121.1" class="st3" width="8.9" height="9"/>
	<rect id="XMLID_53_" x="107.6" y="139.2" class="st3" width="8.9" height="9"/>
	<rect id="XMLID_52_" x="107.6" y="157.2" class="st3" width="8.9" height="9"/>
	<rect id="XMLID_51_" x="107.6" y="241.3" class="st0" width="153.5" height="9"/>
	<rect id="XMLID_50_" x="107.6" y="259.4" class="st0" width="153.5" height="9"/>
	<rect id="XMLID_49_" x="107.6" y="277.4" class="st0" width="103.6" height="9"/>
	<g>
		<path class="st3" d="M136.6,101.6c0,2.7-1.7,4.2-4.4,4.2c-1.8,0-3.2-0.7-4.3-2l1.5-2.1c0.9,0.9,1.9,1.4,2.6,1.4
			c0.8,0,1.4-0.5,1.4-1.5v-5.9H129v-2.6h7.5V101.6z"/>
		<path class="st3" d="M148.7,100.8c0,3-2.1,5-5.3,5c-3.2,0-5.3-2-5.3-5c0-3,2.1-5,5.3-5C146.5,95.9,148.7,97.9,148.7,100.8z
			 M141.2,100.9c0,1.5,0.9,2.5,2.2,2.5c1.3,0,2.2-1,2.2-2.5c0-1.5-0.9-2.5-2.2-2.5C142.1,98.4,141.2,99.4,141.2,100.9z"/>
		<path class="st3" d="M161,100.9c0,3-1.8,4.9-4.5,4.9c-1.3,0-2.3-0.5-3-1.4v1.3h-3.1V92.3h3.1v4.9c0.7-0.9,1.7-1.4,2.9-1.4
			C159.2,95.9,161,97.9,161,100.9z M157.9,100.8c0-1.5-0.9-2.5-2.2-2.5c-1.3,0-2.1,1-2.1,2.5c0,1.5,0.9,2.5,2.1,2.5
			C157,103.3,157.9,102.3,157.9,100.8z"/>
		<path class="st3" d="M165.1,94.6c0,0.5-0.2,0.8-0.4,1.2l-1.3,1.9h-1.5l0.8-1.9c-0.4-0.3-0.6-0.7-0.6-1.2c0-0.9,0.6-1.5,1.5-1.5
			C164.4,93.1,165.1,93.6,165.1,94.6z"/>
		<path class="st3" d="M174.5,97l-1.1,2c-1.2-0.6-2.3-1-3.1-1c-0.6,0-1,0.2-1,0.7c0,1.3,5.1,0.7,5.1,4.1c0,2-1.7,3.1-4.1,3.1
			c-1.6,0-3.2-0.5-4.4-1.4l1-2c1.1,0.8,2.4,1.2,3.4,1.2c0.6,0,1.1-0.2,1.1-0.7c0-1.4-5-0.7-5-4.1c0-2,1.7-3.1,3.9-3.1
			C171.9,95.9,173.3,96.3,174.5,97z"/>
		<path class="st3" d="M185.8,93.1c4,0,6.7,2.6,6.7,6.3c0,3.7-2.8,6.3-6.8,6.3h-5.3V93.1H185.8z M183.6,103.2h2.3
			c2,0,3.4-1.5,3.4-3.7c0-2.2-1.5-3.8-3.5-3.8h-2.1V103.2z"/>
		<path class="st3" d="M204,100.8c0,3-2.1,5-5.3,5c-3.2,0-5.3-2-5.3-5c0-3,2.1-5,5.3-5C201.9,95.9,204,97.9,204,100.8z M196.5,100.9
			c0,1.5,0.9,2.5,2.2,2.5c1.3,0,2.2-1,2.2-2.5c0-1.5-0.9-2.5-2.2-2.5C197.4,98.4,196.5,99.4,196.5,100.9z"/>
		<path class="st3" d="M215.6,99.6v6.1h-3.1v-5.3c0-1.1-0.7-1.8-1.7-1.8c-1.1,0-1.9,0.8-2,2v5.1h-3.1V96h3.1v1.6
			c0.7-1.1,1.8-1.7,3.2-1.7C214.2,95.9,215.6,97.3,215.6,99.6z"/>
		<path class="st3" d="M226.9,101.7h-6.8c0.3,1.2,1.1,1.8,2.3,1.8c0.8,0,1.7-0.3,2.3-1l1.6,1.6c-1,1.1-2.4,1.7-4.2,1.7
			c-3.2,0-5.1-2-5.1-4.9c0-3,2.1-5,5.1-5C225.5,95.9,227.2,98.1,226.9,101.7z M224,100c0-1.2-0.8-2-1.9-2c-1.1,0-1.8,0.8-2,2H224z"
			/>
		<path class="st3" d="M231.3,104.3c0,0.9-0.6,1.5-1.5,1.5c-0.9,0-1.5-0.6-1.5-1.5c0-0.9,0.6-1.5,1.5-1.5
			C230.6,102.8,231.3,103.5,231.3,104.3z M230.7,101.4h-1.9l-0.5-5v-3.2h3v3.2L230.7,101.4z"/>
	</g>
	<g>
		<path class="st4" d="M332.6,117.2L332.6,117.2l-1.8-1.8l-2.5,2.5l-2.3-2.3l8.9-8.9l4,4c2.4,2.4,2.6,4.8,0.6,6.8
			c-1.4,1.4-2.9,1.8-4.5,1.2l-1.1,4.8l-2.6-2.6L332.6,117.2z M334.3,115.4c1,1,2,1.1,3,0.1c0.9-0.9,0.8-2-0.2-3l-1.7-1.7l-2.8,2.8
			L334.3,115.4z"/>
		<path class="st4" d="M344.5,128.5l-4.8-4.8c-0.6,1-0.5,2.1,0.3,2.9c0.6,0.6,1.4,0.9,2.3,0.9l0,2.3c-1.5,0.1-2.9-0.5-4.2-1.8
			c-2.2-2.2-2.2-5-0.2-7.1c2.1-2.1,5-2.1,7.1,0.1C347.6,123.4,347.2,126.2,344.5,128.5z M343.6,125.2c0.8-0.8,0.9-1.9,0.1-2.7
			c-0.8-0.8-1.8-0.7-2.8,0L343.6,125.2z"/>
		<path class="st4" d="M353.8,136.7c-2.1,2.1-4.7,2.2-6.6,0.3c-0.9-0.9-1.3-2-1.1-3.1l-3.4,3.4l-2.2-2.2l9.3-9.3l2.2,2.2l-0.9,0.9
			c1.1-0.1,2.2,0.2,3,1.1C356.1,131.9,355.9,134.6,353.8,136.7z M351.6,134.4c1-1,1.2-2.4,0.2-3.3c-0.9-0.9-2.3-0.8-3.3,0.3
			c-1.1,1.1-1.2,2.4-0.3,3.3C349.2,135.6,350.6,135.5,351.6,134.4z"/>
		<path class="st4" d="M361.9,144.8c-2.1,2.1-5,2-7.3-0.2c-2.3-2.3-2.4-5.2-0.2-7.3s5-2,7.3,0.3
			C363.9,139.8,364.1,142.7,361.9,144.8z M356.6,139.5c-1.1,1.1-1.2,2.4-0.2,3.3c0.9,0.9,2.2,0.8,3.3-0.3c1.1-1.1,1.2-2.4,0.3-3.3
			C359,138.4,357.7,138.5,356.6,139.5z"/>
		<path class="st4" d="M367.6,145.9c1.3-0.3,2.5,0,3.5,1l-2,2c-1.2-1.4-2.6-1.6-3.7-0.8l-3.5,3.5l-2.2-2.2l6.9-6.9l2.2,2.2
			L367.6,145.9z"/>
		<path class="st4" d="M369.9,158.9c-0.8-0.2-1.6-0.7-2.3-1.4c-1.3-1.3-1.5-3-0.1-4.5l3-3l-1-1l1.4-1.4l1,1l1.9-1.9l2.2,2.2
			l-1.9,1.9l1.8,1.8l-1.5,1.5l-1.8-1.8l-2.7,2.7c-0.5,0.5-0.5,1-0.1,1.4c0.2,0.2,0.6,0.4,1.1,0.6L369.9,158.9z"/>
	</g>
	<g>
		<path class="st3" d="M114.6,321.1v2.7h-2.4V321c-1.6-0.3-3.2-0.9-4.3-1.9l1.2-2.5c1.3,1.1,3.2,1.9,4.6,1.9c1,0,1.6-0.4,1.6-1.1
			c0-2.2-6.7-0.9-6.7-5.4c0-1.9,1.4-3.3,3.5-3.7v-2.7h2.4v2.6c1.5,0.2,3,0.7,4.1,1.4l-1.2,2.5c-1.3-0.8-3-1.3-4-1.3
			c-0.8,0-1.4,0.3-1.4,0.9c0,2.2,6.7,0.9,6.7,5.5C118.7,319.5,117,320.8,114.6,321.1z"/>
		<path class="st3" d="M126.2,321.1v2.7h-2.4V321c-1.6-0.3-3.2-0.9-4.3-1.9l1.2-2.5c1.3,1.1,3.2,1.9,4.6,1.9c1,0,1.6-0.4,1.6-1.1
			c0-2.2-6.7-0.9-6.7-5.4c0-1.9,1.4-3.3,3.5-3.7v-2.7h2.4v2.6c1.5,0.2,3,0.7,4.1,1.4l-1.2,2.5c-1.3-0.8-3-1.3-4-1.3
			c-0.8,0-1.4,0.3-1.4,0.9c0,2.2,6.7,0.9,6.7,5.5C130.3,319.5,128.6,320.8,126.2,321.1z"/>
		<path class="st3" d="M134.5,319.7c0,0.5-0.2,0.8-0.4,1.2l-1.3,1.9h-1.5l0.8-1.9c-0.4-0.3-0.6-0.7-0.6-1.2c0-0.9,0.6-1.5,1.5-1.5
			C133.8,318.2,134.5,318.7,134.5,319.7z"/>
		<path class="st3" d="M142.1,321.1v2.7h-2.4V321c-1.6-0.3-3.2-0.9-4.3-1.9l1.2-2.5c1.3,1.1,3.2,1.9,4.6,1.9c1,0,1.6-0.4,1.6-1.1
			c0-2.2-6.7-0.9-6.7-5.4c0-1.9,1.4-3.3,3.5-3.7v-2.7h2.4v2.6c1.5,0.2,3,0.7,4.1,1.4l-1.2,2.5c-1.3-0.8-3-1.3-4-1.3
			c-0.8,0-1.4,0.3-1.4,0.9c0,2.2,6.7,0.9,6.7,5.5C146.3,319.5,144.5,320.8,142.1,321.1z"/>
		<path class="st3" d="M153.7,321.1v2.7h-2.4V321c-1.6-0.3-3.2-0.9-4.3-1.9l1.2-2.5c1.3,1.1,3.2,1.9,4.6,1.9c1,0,1.6-0.4,1.6-1.1
			c0-2.2-6.7-0.9-6.7-5.4c0-1.9,1.4-3.3,3.5-3.7v-2.7h2.4v2.6c1.5,0.2,3,0.7,4.1,1.4l-1.2,2.5c-1.3-0.8-3-1.3-4-1.3
			c-0.8,0-1.4,0.3-1.4,0.9c0,2.2,6.7,0.9,6.7,5.5C157.8,319.5,156.1,320.8,153.7,321.1z"/>
		<path class="st3" d="M165.3,321.1v2.7H163V321c-1.6-0.3-3.2-0.9-4.3-1.9l1.2-2.5c1.3,1.1,3.2,1.9,4.6,1.9c1,0,1.6-0.4,1.6-1.1
			c0-2.2-6.7-0.9-6.7-5.4c0-1.9,1.4-3.3,3.5-3.7v-2.7h2.4v2.6c1.5,0.2,3,0.7,4.1,1.4l-1.2,2.5c-1.3-0.8-3-1.3-4-1.3
			c-0.8,0-1.4,0.3-1.4,0.9c0,2.2,6.7,0.9,6.7,5.5C169.4,319.5,167.7,320.8,165.3,321.1z"/>
	</g>
	<g>
		<path class="st4" d="M115.9,335.4v3.3c-0.9,0.6-2.3,1.1-3.5,1.1c-2.6,0-4.5-1.8-4.5-4.3c0-2.4,2-4.3,4.6-4.3
			c1.2,0,2.6,0.5,3.4,1.2l-1.2,1.5c-0.6-0.6-1.5-0.9-2.2-0.9c-1.4,0-2.4,1.1-2.4,2.5c0,1.4,1.1,2.5,2.5,2.5c0.4,0,1-0.2,1.5-0.4
			v-2.2H115.9z"/>
		<path class="st4" d="M123.5,337h-4.5c0.2,0.8,0.8,1.2,1.5,1.2c0.6,0,1.1-0.2,1.5-0.7l1.1,1.1c-0.7,0.7-1.6,1.1-2.8,1.1
			c-2.1,0-3.4-1.3-3.4-3.3c0-2,1.4-3.3,3.4-3.3C122.5,333.2,123.6,334.7,123.5,337z M121.5,335.9c0-0.8-0.5-1.3-1.2-1.3
			c-0.7,0-1.2,0.5-1.3,1.3H121.5z"/>
		<path class="st4" d="M128.8,339.4c-0.5,0.3-1.1,0.4-1.7,0.4c-1.2,0-2.1-0.7-2.1-2.1v-2.9H124v-1.4h0.9v-1.8h2.1v1.8h1.7v1.4H127
			v2.5c0,0.5,0.2,0.7,0.6,0.7c0.2,0,0.5-0.1,0.8-0.2L128.8,339.4z"/>
		<path class="st4" d="M136.3,331.3c2.1,0,3.4,1.1,3.4,2.9c0,2-1.2,3.1-3.4,3.1h-1.5v2.4h-2.1v-8.4H136.3z M134.7,335.7h1.4
			c0.9,0,1.5-0.5,1.5-1.4c0-0.9-0.5-1.3-1.5-1.3h-1.4V335.7z"/>
		<path class="st4" d="M146.5,335.5v4.2h-2V339c-0.4,0.6-1.1,0.8-2,0.8c-1.4,0-2.2-0.8-2.2-2c0-1.2,0.9-1.9,2.5-2h1.7v-0.1
			c0-0.6-0.4-1-1.3-1c-0.5,0-1.2,0.2-1.9,0.5l-0.6-1.4c1-0.5,1.9-0.7,3-0.7C145.4,333.1,146.5,334,146.5,335.5z M144.4,337.5v-0.6
			h-1.3c-0.6,0-0.9,0.2-0.9,0.7c0,0.5,0.3,0.8,0.9,0.8C143.8,338.4,144.3,338,144.4,337.5z"/>
		<path class="st4" d="M150.1,331.4c0,0.6-0.5,1.1-1.1,1.1s-1.1-0.5-1.1-1.1c0-0.6,0.5-1.1,1.1-1.1S150.1,330.7,150.1,331.4z
			 M148,339.7v-6.5h2.1v6.5H148z"/>
		<path class="st4" d="M158.2,339.7h-2.1v-0.9c-0.5,0.6-1.1,0.9-1.9,0.9c-1.8,0-3-1.3-3-3.3c0-2,1.2-3.3,3-3.3c0.9,0,1.5,0.3,2,0.9
			v-3.3h2.1V339.7z M156.1,336.5c0-1-0.6-1.7-1.4-1.7c-0.9,0-1.4,0.7-1.5,1.7c0,1,0.6,1.7,1.5,1.7
			C155.5,338.2,156.1,337.5,156.1,336.5z"/>
	</g>
	<polygon id="XMLID_4_" class="st3" points="241.2,351 236.6,338.4 224.5,344.3 236.5,314.6 253.2,321.3 	"/>
	<polygon id="XMLID_3_" class="st4" points="258.3,284.8 259.2,289.6 263.9,288 263.5,292.9 268.5,292.6 266.7,297.3 271.6,298.3 
		268.7,302.3 273.1,304.7 269.2,307.7 272.8,311.2 268.2,313.1 270.8,317.3 265.9,318 267.2,322.7 262.3,322 262.2,327 257.7,324.9 
		256.3,329.7 252.5,326.5 249.9,330.8 247.1,326.7 243.5,330.1 241.9,325.4 237.4,327.6 237.2,322.7 232.3,323.7 233.3,318.8 
		228.4,318.4 230.7,314.1 226.1,312.4 229.5,308.8 225.4,305.9 229.7,303.4 226.6,299.5 231.4,298.2 229.4,293.6 234.4,293.7 
		233.8,288.8 238.5,290.2 239.2,285.2 243.4,287.9 245.4,283.3 248.8,287 251.9,283.2 254.2,287.6 	"/>
	<circle id="XMLID_2_" class="st3" cx="249.4" cy="306.8" r="10"/>
	<g>
		<path id="XMLID_1_" class="st2" d="M247.6,310.5c-0.6,0.3-1.3,0.1-1.5-0.6l-1.5-4.8l1-0.3l1.3,4.2c0.1,0.3,0.5,0.4,0.7,0.3l8.2-5
			l0.5,0.9L247.6,310.5z"/>
	</g>
</g>
</svg>
