<svg width="20" height="20" viewBox="0 0 18 18" fill="#ffffff" xmlns="http://www.w3.org/2000/svg">
  <path d="M13.908 1A3.096 3.096 0 0 1 17 4.092v9.816a3.095 3.095 0 0 1-3.092 3.09H4.092A3.094 3.094 0 0 1 1 13.909V4.092A3.095 3.095 0 0 1 4.092 1h9.816zM5.215 7.549H2.94v5.963c0 .77.654 1.395 1.459 1.395h9.346c.804 0 1.459-.626 1.459-1.395V7.55H12.93c.197.462.308.966.308 1.495 0 2.195-1.868 3.982-4.165 3.982-2.297 0-4.164-1.787-4.164-3.982 0-.53.11-1.033.306-1.495zm3.857-1.226c-.818 0-1.542.405-1.988 1.022a2.435 2.435 0 0 0-.464 1.43c0 1.353 1.1 2.453 2.452 2.453 1.353 0 2.454-1.1 2.454-2.452 0-.534-.174-1.028-.465-1.43a2.45 2.45 0 0 0-1.989-1.023zm6.133-3.68l-.32.002-2.133.007.008 2.444 2.445-.008V2.644z">
  </path>
</svg>
