<svg id="svg" version="1.1" xmlns="http://www.w3.org/2000/svg" xmlns:xlink="http://www.w3.org/1999/xlink" width="200" height="40" viewBox="0, 0, 400,93.04">
  <g id="svgg">
    <path id="path0" d="M73.500 21.448 C 72.015 22.145,68.875 23.500,68.744 23.500 C 68.693 23.500,66.911 24.260,64.784 25.189 C 62.657 26.117,60.279 27.121,59.500 27.420 C 58.240 27.902,55.098 29.264,52.500 30.454 C 51.996 30.685,51.208 31.005,50.750 31.165 C 49.994 31.429,46.447 32.946,43.917 34.087 C 43.367 34.335,42.129 34.858,41.167 35.248 C 40.204 35.638,37.751 36.679,35.716 37.562 C 33.680 38.444,31.973 39.167,31.922 39.167 C 31.787 39.167,28.278 40.675,28.083 40.817 C 27.992 40.884,26.979 41.323,25.833 41.793 C 18.293 44.886,18.737 44.453,21.500 46.025 C 22.188 46.416,23.462 47.194,24.333 47.754 C 25.204 48.313,27.079 49.471,28.500 50.327 C 29.921 51.182,31.496 52.159,32.000 52.496 C 33.592 53.562,34.228 53.948,35.025 54.334 L 35.800 54.709 36.442 54.233 C 37.147 53.710,39.437 51.740,39.833 51.315 C 39.971 51.168,40.683 50.573,41.417 49.993 C 42.150 49.413,43.200 48.515,43.750 47.998 C 44.300 47.481,45.200 46.717,45.750 46.301 C 46.300 45.884,47.163 45.148,47.667 44.665 C 48.171 44.182,49.108 43.369,49.750 42.859 C 50.392 42.350,51.554 41.355,52.333 40.649 C 53.112 39.942,54.125 39.087,54.583 38.748 C 55.042 38.408,55.611 37.933,55.849 37.690 C 56.086 37.448,57.956 35.825,60.003 34.083 C 66.948 28.176,70.914 24.780,71.861 23.930 C 72.380 23.465,73.299 22.681,73.902 22.190 C 75.598 20.810,75.448 20.533,73.500 21.448 M76.167 23.701 C 75.296 24.723,73.659 26.653,72.529 27.988 C 71.399 29.324,70.116 30.792,69.678 31.250 C 69.240 31.708,68.467 32.608,67.960 33.250 C 67.454 33.892,66.688 34.792,66.258 35.250 C 65.829 35.708,65.127 36.525,64.697 37.066 C 64.268 37.606,63.401 38.615,62.771 39.307 C 62.140 39.999,61.247 41.019,60.786 41.574 C 60.324 42.129,58.403 44.366,56.515 46.545 C 54.628 48.724,52.830 50.824,52.520 51.212 C 52.210 51.599,51.235 52.727,50.353 53.718 C 49.471 54.709,48.582 55.750,48.376 56.033 C 48.170 56.315,47.287 57.340,46.413 58.310 C 44.489 60.445,44.469 60.291,46.860 61.740 C 49.190 63.151,52.414 65.156,55.968 67.405 C 57.406 68.315,59.047 69.327,59.615 69.655 C 60.920 70.408,62.311 71.276,64.389 72.634 C 65.300 73.229,66.090 73.641,66.168 73.561 C 66.317 73.408,67.113 70.186,67.687 67.417 C 67.985 65.976,68.555 63.509,71.348 51.557 C 71.608 50.443,71.895 49.093,71.985 48.557 C 72.075 48.022,72.976 44.095,73.988 39.832 C 74.999 35.569,75.936 31.481,76.069 30.749 C 76.202 30.016,76.691 27.828,77.156 25.886 C 78.325 20.997,78.375 21.109,76.167 23.701 M306.167 58.099 C 303.122 59.418,303.898 63.939,307.228 64.283 C 311.147 64.688,312.678 59.381,309.016 58.089 C 308.104 57.767,306.923 57.771,306.167 58.099 " stroke="none" fill="#24c40c" fill-rule="evenodd">
    </path>
    <path id="path1" d="M156.167 41.080 L 156.167 45.826 155.458 45.334 C 151.924 42.876,145.438 45.518,144.413 49.833 C 144.380 49.971,144.189 50.720,143.988 51.499 C 143.230 54.434,143.838 59.019,145.281 61.261 C 147.580 64.830,152.882 65.365,155.805 62.322 L 156.437 61.665 156.650 62.499 C 156.991 63.830,157.360 64.000,159.901 64.000 L 162.000 64.000 162.000 50.167 L 162.000 36.333 159.083 36.333 L 156.167 36.333 156.167 41.080 M78.333 37.217 C 78.333 37.336,78.399 37.505,78.480 37.592 C 78.650 37.776,80.335 41.910,80.421 42.354 C 80.452 42.519,80.585 42.901,80.714 43.202 C 80.844 43.503,81.182 44.313,81.466 45.000 C 81.749 45.688,82.404 47.262,82.921 48.500 C 83.438 49.737,84.156 51.567,84.518 52.566 C 84.879 53.565,85.276 54.615,85.401 54.900 C 85.525 55.184,85.794 55.829,85.997 56.333 C 86.201 56.837,86.467 57.475,86.588 57.750 C 86.709 58.025,86.990 58.663,87.212 59.167 C 87.433 59.671,87.821 60.646,88.073 61.333 C 88.325 62.021,88.656 62.903,88.807 63.294 L 89.083 64.005 92.059 63.961 L 95.034 63.917 95.352 63.083 C 95.527 62.625,95.829 61.800,96.022 61.250 C 96.215 60.700,96.552 59.854,96.770 59.370 C 96.988 58.886,97.167 58.447,97.167 58.395 C 97.167 58.343,97.287 58.027,97.434 57.692 C 97.581 57.357,97.764 56.933,97.842 56.750 C 98.696 54.734,99.128 53.649,99.669 52.167 C 100.020 51.204,100.547 49.854,100.841 49.167 C 101.741 47.061,102.836 44.338,103.521 42.500 C 103.880 41.537,104.243 40.600,104.328 40.417 C 104.584 39.868,105.667 37.169,105.667 37.081 C 105.667 37.037,104.373 37.000,102.792 37.001 C 98.860 37.001,98.885 36.985,97.673 40.333 C 97.291 41.387,96.796 42.739,96.573 43.337 C 96.349 43.936,96.167 44.517,96.167 44.630 C 96.167 44.743,95.912 45.491,95.600 46.293 C 95.288 47.094,94.752 48.538,94.409 49.500 C 94.065 50.462,93.654 51.550,93.495 51.917 C 93.337 52.283,93.041 53.146,92.838 53.833 C 92.635 54.521,92.401 55.256,92.318 55.466 C 92.235 55.677,92.161 56.089,92.155 56.383 C 92.145 56.820,92.119 56.856,92.011 56.583 C 91.939 56.400,91.912 56.164,91.951 56.059 C 91.990 55.953,91.943 55.818,91.845 55.757 C 91.747 55.697,91.667 55.482,91.667 55.281 C 91.667 55.080,91.472 54.391,91.235 53.749 C 90.997 53.108,90.741 52.396,90.666 52.167 C 90.590 51.938,89.959 50.257,89.264 48.433 C 88.569 46.609,88.000 45.014,88.000 44.889 C 88.000 44.764,87.927 44.532,87.838 44.373 C 87.748 44.214,87.478 43.483,87.236 42.750 C 85.902 38.698,85.301 37.564,84.281 37.178 C 83.565 36.906,78.333 36.941,78.333 37.217 M201.444 37.111 C 201.383 37.172,201.333 43.247,201.333 50.611 L 201.333 64.000 204.583 64.000 L 207.833 64.000 207.833 58.833 L 207.833 53.667 212.417 53.667 L 217.000 53.667 217.000 51.083 C 217.000 49.663,216.944 48.509,216.875 48.520 C 216.806 48.531,214.742 48.531,212.288 48.520 L 207.826 48.500 207.871 45.292 L 207.917 42.083 213.333 42.000 L 218.750 41.917 218.796 39.458 L 218.842 37.000 210.199 37.000 C 205.445 37.000,201.506 37.050,201.444 37.111 M294.131 39.391 C 293.894 39.574,293.100 42.151,292.603 44.354 C 292.512 44.757,292.386 44.814,291.002 45.083 L 289.500 45.375 289.500 46.674 C 289.500 48.590,289.837 49.000,291.408 49.000 L 292.167 49.000 292.184 53.875 C 292.208 60.819,292.246 61.059,293.588 62.627 C 294.925 64.189,297.944 64.742,300.667 63.925 C 301.683 63.619,303.333 62.761,303.333 62.537 C 303.333 62.348,302.012 60.250,301.525 59.668 L 301.039 59.087 300.228 59.377 C 299.178 59.754,299.064 59.746,298.576 59.258 L 298.167 58.848 298.167 53.924 L 298.167 49.000 300.375 48.997 C 303.188 48.994,303.022 49.134,302.964 46.820 L 302.917 44.917 300.546 44.870 L 298.175 44.824 298.129 42.037 L 298.083 39.250 296.250 39.211 C 294.936 39.182,294.336 39.233,294.131 39.391 M196.083 44.490 C 194.904 44.778,192.667 46.526,192.667 47.160 C 192.667 47.663,192.365 47.231,192.279 46.605 C 192.043 44.886,191.934 44.820,189.125 44.708 L 187.000 44.622 187.000 54.311 L 187.000 64.000 189.917 64.000 L 192.833 64.000 192.833 58.186 L 192.833 52.371 193.375 51.565 C 194.283 50.214,194.714 50.021,196.749 50.055 C 198.101 50.077,198.543 50.028,198.737 49.833 C 199.063 49.506,199.436 45.242,199.167 44.917 C 198.787 44.459,197.141 44.231,196.083 44.490 M250.046 44.495 C 249.289 44.675,248.725 45.077,247.642 46.208 C 246.629 47.267,246.596 47.267,246.424 46.224 C 246.265 45.266,246.015 44.990,245.157 44.824 C 244.296 44.658,241.649 44.620,241.264 44.768 C 241.027 44.858,241.000 45.866,241.000 54.434 L 241.000 64.000 244.083 64.000 L 247.167 64.000 247.170 58.042 L 247.173 52.083 247.666 51.298 C 248.375 50.169,248.780 50.010,250.762 50.083 C 253.035 50.167,252.971 50.237,253.258 47.389 C 253.473 45.261,253.470 45.067,253.212 44.873 C 252.565 44.388,251.189 44.224,250.046 44.495 M109.687 44.763 C 103.584 46.404,101.081 53.186,104.167 59.718 C 106.393 64.429,114.617 65.830,119.369 62.307 C 121.017 61.085,121.024 61.052,119.917 59.681 C 118.586 58.034,118.384 58.000,116.020 59.036 C 112.338 60.648,108.833 59.124,108.833 55.910 L 108.833 55.500 114.500 55.500 C 121.434 55.500,121.168 55.619,120.947 52.604 C 120.513 46.672,115.519 43.194,109.687 44.763 M131.877 44.896 C 131.306 45.113,130.433 45.595,129.938 45.969 L 129.038 46.649 128.755 45.906 C 128.370 44.898,128.071 44.780,125.708 44.698 L 123.667 44.626 123.667 54.313 L 123.667 64.000 126.583 64.000 L 129.500 64.000 129.500 57.204 C 129.500 50.893,129.521 50.390,129.796 50.162 C 131.675 48.607,134.414 48.724,134.993 50.384 C 135.102 50.698,135.167 53.318,135.167 57.445 L 135.167 64.008 138.125 63.962 L 141.083 63.917 141.083 57.167 C 141.082 49.930,141.026 49.350,140.163 47.659 C 138.795 44.978,135.003 43.713,131.877 44.896 M171.583 44.818 C 165.964 46.469,163.250 52.021,165.165 57.949 C 167.826 66.185,180.873 66.535,183.657 58.446 C 184.472 56.077,184.496 52.430,183.710 50.333 C 183.658 50.196,183.596 49.981,183.570 49.856 C 183.331 48.682,181.020 46.356,179.151 45.409 C 177.341 44.492,173.669 44.205,171.583 44.818 M225.917 44.732 C 220.718 45.999,217.704 51.545,219.161 57.158 C 221.658 66.772,235.722 66.807,238.178 57.206 C 240.195 49.320,233.796 42.810,225.917 44.732 M260.711 44.747 C 251.781 47.249,251.315 60.311,260.033 63.711 C 263.577 65.092,269.113 63.993,271.487 61.436 C 272.489 60.356,269.570 57.738,268.206 58.494 C 264.042 60.802,260.324 59.792,259.889 56.236 L 259.799 55.500 265.474 55.500 C 272.427 55.500,271.971 55.670,271.957 53.080 C 271.952 52.165,271.880 51.328,271.797 51.221 C 271.714 51.113,271.663 50.925,271.684 50.804 C 271.970 49.112,269.286 45.986,266.681 44.976 C 265.463 44.504,262.047 44.373,260.711 44.747 M278.796 44.759 C 278.271 44.886,277.542 45.180,277.174 45.412 C 276.807 45.644,276.458 45.833,276.398 45.833 C 276.157 45.833,274.847 47.297,274.512 47.940 C 273.134 50.584,273.850 53.340,276.429 55.321 C 276.753 55.570,278.231 56.185,279.333 56.529 C 282.361 57.475,283.152 58.118,282.649 59.223 C 282.120 60.384,279.965 60.511,277.980 59.500 C 275.893 58.436,275.176 58.623,274.030 60.528 C 273.120 62.040,273.114 62.016,274.671 62.871 C 278.812 65.145,284.340 64.664,286.908 61.808 C 287.330 61.338,287.637 60.915,287.589 60.867 C 287.542 60.820,287.574 60.694,287.662 60.589 C 288.303 59.817,288.471 57.481,287.996 55.944 C 287.471 54.243,286.395 53.452,282.876 52.181 C 279.617 51.005,279.600 50.994,279.636 50.039 C 279.692 48.553,281.644 48.249,284.187 49.330 C 286.075 50.134,286.576 49.955,287.558 48.127 L 288.191 46.948 287.637 46.468 C 285.714 44.801,281.769 44.038,278.796 44.759 M319.478 44.839 C 310.951 47.273,310.432 60.426,318.731 63.789 C 321.735 65.006,326.278 64.144,328.815 61.876 C 329.895 60.910,329.885 60.825,328.517 59.375 C 327.286 58.070,326.929 58.031,325.351 59.032 C 321.674 61.365,318.711 58.805,319.053 53.592 C 319.328 49.404,321.725 47.825,325.199 49.542 C 327.060 50.462,327.350 50.375,328.813 48.462 L 329.670 47.341 328.731 46.604 C 326.206 44.622,322.629 43.940,319.478 44.839 M337.536 44.732 C 331.392 46.285,328.575 53.328,331.637 59.483 C 334.052 64.339,341.328 65.904,346.167 62.608 C 351.494 58.980,351.436 49.646,346.063 46.052 C 344.075 44.723,340.044 44.099,337.536 44.732 M360.917 44.803 C 359.916 45.229,359.264 45.606,358.687 46.092 C 358.209 46.494,358.160 46.505,358.071 46.223 C 357.845 45.500,357.492 45.070,356.972 44.884 C 356.395 44.678,353.391 44.591,352.930 44.768 C 352.694 44.858,352.667 45.866,352.667 54.434 L 352.667 64.000 355.667 64.000 L 358.667 64.000 358.667 57.091 L 358.667 50.183 359.450 49.644 C 360.878 48.661,362.802 48.846,363.447 50.029 C 363.723 50.534,363.755 51.185,363.803 57.292 L 363.857 64.000 366.762 64.000 L 369.667 64.000 369.667 57.511 C 369.667 53.324,369.730 50.856,369.844 50.555 C 370.351 49.223,372.110 48.624,373.474 49.320 C 374.585 49.887,374.578 49.834,374.634 57.292 L 374.684 64.000 377.592 64.000 L 380.500 64.000 380.498 57.208 C 380.494 48.787,380.300 47.729,378.447 46.055 C 375.897 43.751,370.617 44.028,368.368 46.584 L 367.656 47.392 367.373 46.988 C 365.792 44.729,363.171 43.842,360.917 44.803 M113.965 48.982 C 114.974 49.497,115.638 50.533,115.659 51.625 L 115.667 52.000 112.250 52.000 C 110.371 52.000,108.833 51.938,108.833 51.863 C 108.833 49.655,111.905 47.931,113.965 48.982 M264.735 48.827 C 265.674 49.185,266.388 50.140,266.579 51.295 L 266.697 52.007 263.307 51.962 L 259.917 51.917 259.976 51.417 C 260.206 49.464,262.757 48.076,264.735 48.827 M155.395 49.449 L 156.083 49.932 156.130 53.758 C 156.186 58.277,156.204 58.172,155.255 58.812 C 153.518 59.985,151.640 59.950,150.678 58.727 C 149.116 56.741,149.565 50.840,151.384 49.453 C 152.434 48.652,154.258 48.650,155.395 49.449 M176.083 49.248 C 178.502 50.242,179.013 57.224,176.804 59.083 C 175.208 60.426,172.314 59.869,171.490 58.061 C 170.475 55.834,170.758 50.835,171.952 49.894 C 173.220 48.896,174.674 48.668,176.083 49.248 M230.268 49.277 C 231.790 49.977,232.384 51.444,232.385 54.500 C 232.386 57.395,231.820 58.711,230.263 59.436 C 226.864 61.019,224.426 58.052,224.997 53.027 C 225.383 49.629,227.601 48.052,230.268 49.277 M341.208 49.069 C 343.654 49.511,344.908 54.113,343.538 57.628 C 342.775 59.589,340.616 60.371,338.600 59.417 C 335.557 57.978,335.800 50.148,338.917 49.177 C 339.933 48.861,340.031 48.856,341.208 49.069 " stroke="none" fill="#343434" fill-rule="evenodd">
    </path>
    <path id="path2" d="M77.398 20.208 C 76.931 20.598,75.948 21.442,75.214 22.083 C 72.525 24.435,69.622 26.930,69.007 27.417 C 68.660 27.692,66.552 29.492,64.322 31.417 C 62.093 33.342,59.734 35.367,59.081 35.917 C 56.798 37.837,54.763 39.593,53.285 40.917 C 52.466 41.650,51.598 42.395,51.357 42.573 C 50.653 43.090,48.822 44.666,47.911 45.539 C 47.450 45.981,46.850 46.481,46.578 46.650 C 46.306 46.820,45.371 47.614,44.500 48.415 C 43.629 49.216,42.513 50.173,42.019 50.541 C 41.525 50.910,40.513 51.773,39.769 52.460 C 39.025 53.148,38.028 53.999,37.554 54.351 C 37.079 54.704,36.652 55.055,36.605 55.131 C 36.558 55.208,37.267 57.253,38.182 59.677 C 39.096 62.100,39.965 64.496,40.112 65.000 C 40.816 67.410,43.077 73.145,43.253 72.969 C 43.366 72.856,43.993 63.000,44.004 61.167 L 44.012 59.750 45.614 58.000 C 46.495 57.038,47.503 55.862,47.854 55.387 C 48.205 54.913,48.572 54.475,48.669 54.415 C 48.808 54.329,51.018 51.779,52.062 50.500 C 52.174 50.362,53.125 49.265,54.175 48.062 C 55.224 46.858,56.544 45.320,57.108 44.645 C 57.671 43.969,58.389 43.154,58.704 42.833 C 59.019 42.512,59.699 41.713,60.216 41.058 C 60.732 40.402,61.664 39.314,62.286 38.641 C 62.908 37.967,63.677 37.079,63.995 36.666 C 64.313 36.254,65.122 35.320,65.793 34.590 C 66.464 33.861,67.329 32.848,67.715 32.340 C 68.101 31.832,68.806 31.004,69.283 30.500 C 69.759 29.996,70.621 29.016,71.199 28.323 C 71.777 27.629,73.600 25.490,75.250 23.570 C 78.995 19.210,78.765 19.500,78.478 19.500 C 78.351 19.500,77.865 19.819,77.398 20.208 M157.533 36.291 C 158.331 36.321,159.681 36.321,160.533 36.291 C 161.386 36.261,160.733 36.236,159.083 36.236 C 157.433 36.235,156.736 36.260,157.533 36.291 M213.333 41.997 L 207.917 42.083 207.911 45.292 L 207.906 48.500 207.956 45.333 L 208.007 42.167 213.327 42.167 C 216.694 42.167,218.685 42.105,218.750 42.000 C 218.807 41.908,218.830 41.851,218.802 41.872 C 218.773 41.893,216.313 41.949,213.333 41.997 M105.536 46.958 C 105.138 47.348,105.131 47.367,105.492 47.086 C 106.203 46.532,106.237 46.500,106.119 46.500 C 106.057 46.500,105.794 46.706,105.536 46.958 M332.906 47.208 L 332.417 47.750 332.958 47.260 C 333.463 46.804,333.577 46.667,333.448 46.667 C 333.419 46.667,333.175 46.910,332.906 47.208 M221.500 47.047 C 221.362 47.159,221.140 47.400,221.006 47.583 C 220.872 47.767,221.004 47.696,221.298 47.427 C 221.778 46.988,221.917 46.823,221.792 46.839 C 221.769 46.842,221.637 46.935,221.500 47.047 M379.552 47.486 C 379.750 47.848,379.937 48.118,379.968 48.087 C 380.049 48.007,379.532 47.040,379.347 46.925 C 379.262 46.873,379.354 47.125,379.552 47.486 M281.208 48.786 C 281.460 48.824,281.873 48.824,282.125 48.786 C 282.377 48.748,282.171 48.717,281.667 48.717 C 281.162 48.717,280.956 48.748,281.208 48.786 M322.458 48.951 C 322.665 48.991,323.002 48.991,323.208 48.951 C 323.415 48.911,323.246 48.879,322.833 48.879 C 322.421 48.879,322.252 48.911,322.458 48.951 M342.825 50.074 C 343.045 50.308,343.250 50.500,343.280 50.500 C 343.431 50.500,342.891 49.827,342.674 49.744 C 342.537 49.691,342.605 49.840,342.825 50.074 M248.135 50.625 C 247.841 50.967,247.621 51.333,247.709 51.333 C 247.743 51.333,247.937 51.108,248.140 50.833 C 248.542 50.290,248.538 50.155,248.135 50.625 M207.908 58.833 C 207.908 61.721,207.930 62.902,207.958 61.458 C 207.986 60.015,207.986 57.652,207.958 56.208 C 207.930 54.765,207.908 55.946,207.908 58.833 M224.875 54.417 C 224.877 54.783,224.911 54.914,224.951 54.706 C 224.991 54.499,224.990 54.199,224.948 54.040 C 224.906 53.880,224.874 54.050,224.875 54.417 M149.712 54.833 C 149.712 55.246,149.745 55.415,149.784 55.208 C 149.824 55.002,149.824 54.665,149.784 54.458 C 149.745 54.252,149.712 54.421,149.712 54.833 M232.354 54.917 C 232.340 55.100,232.290 55.438,232.243 55.667 L 232.157 56.083 232.336 55.674 C 232.434 55.450,232.484 55.112,232.447 54.924 C 232.380 54.592,232.378 54.592,232.354 54.917 M116.740 58.593 C 116.422 58.848,116.422 58.849,116.750 58.698 C 116.933 58.614,117.196 58.503,117.333 58.452 C 117.549 58.372,117.548 58.358,117.324 58.346 C 117.181 58.339,116.918 58.450,116.740 58.593 M118.974 58.625 C 119.163 58.785,119.452 59.070,119.617 59.258 C 119.782 59.446,119.845 59.483,119.758 59.341 C 119.475 58.882,118.946 58.333,118.786 58.333 C 118.700 58.333,118.784 58.465,118.974 58.625 M270.048 58.717 C 270.251 58.928,270.447 59.078,270.485 59.051 C 270.582 58.981,269.976 58.333,269.813 58.333 C 269.739 58.333,269.845 58.506,270.048 58.717 M325.583 58.765 L 325.083 59.194 325.667 58.818 C 326.415 58.335,326.417 58.333,326.236 58.334 C 326.152 58.335,325.858 58.528,325.583 58.765 M287.722 60.429 C 287.617 60.651,287.594 60.833,287.671 60.833 C 287.816 60.833,288.075 60.186,287.972 60.083 C 287.940 60.051,287.827 60.206,287.722 60.429 M271.676 60.619 C 271.885 60.955,271.861 61.039,271.412 61.536 L 270.917 62.083 271.458 61.594 C 272.068 61.043,272.124 60.810,271.723 60.479 C 271.470 60.270,271.466 60.282,271.676 60.619 M220.798 60.917 C 220.892 61.100,221.183 61.437,221.443 61.666 L 221.917 62.082 221.418 61.499 C 220.628 60.576,220.617 60.566,220.798 60.917 M44.524 65.292 C 44.412 67.285,44.275 69.385,44.220 69.958 C 44.140 70.802,44.167 71.000,44.362 71.000 C 44.592 71.000,49.000 64.530,49.000 64.192 C 49.000 63.872,45.440 61.667,44.924 61.667 C 44.786 61.667,44.668 62.743,44.524 65.292 M119.333 62.354 C 118.752 62.863,118.752 62.864,119.287 62.508 C 119.582 62.312,119.867 62.080,119.921 61.992 C 120.082 61.732,119.949 61.814,119.333 62.354 " stroke="none" fill="#241c1c" fill-rule="evenodd">
    </path>
    <path id="path3" d="" stroke="none" fill="#2cc820" fill-rule="evenodd">
    </path>
    <path id="path4" d="" stroke="none" fill="#2c5c20" fill-rule="evenodd"></path>
  </g>
</svg>
