<?xml version="1.0" encoding="utf-8"?>
<!-- Generator: Adobe Illustrator 19.0.0, SVG Export Plug-In . SVG Version: 6.00 Build 0)  -->
<svg version="1.1" id="Layer_1" xmlns="http://www.w3.org/2000/svg" xmlns:xlink="http://www.w3.org/1999/xlink" x="0px" y="0px"
	 viewBox="0 0 450 405" style="enable-background:new 0 0 450 405;" xml:space="preserve">
<style type="text/css">
	.st0{fill:#E5E5E5;}
	.st1{fill:#777777;}
	.st2{fill:#FFFFFF;}
	.st3{fill:#666666;}
	.st4{fill:#6ADB7F;}
</style>
<g>
	<path id="XMLID_20_" class="st0" d="M1,281.5c0,85.7,111.7,121.8,256.9,121.8S449,304.4,449,218.8s-129.7-114-274.9-114
		S1,195.8,1,281.5z"/>
	<g>
		<path id="XMLID_19_" class="st1" d="M181.2,335.5c2.9,7.3,8.4,12.9,15.7,15.8l35.3,14.4c14,5.7,29.6,6.1,43.9,1l42.5-15.2
			c2.2-0.8,2.9-2.8,2.8-4.3c-0.1-1.5-1-3.4-3.3-3.9l-50.5-11.8c-6.2-1.5-11.5-5.5-14.4-11.2c-2.9-5.7-3.3-12.3-0.9-18.2l0,0
			l8.1-17.4l-70.1,10.1l-8.5,18.4C178.5,320.4,178.3,328.3,181.2,335.5z"/>
		<path id="XMLID_18_" class="st1" d="M323.3,347.7c0,2.6-1.6,4.9-4.1,5.7l-42.5,15.2c-6.9,2.5-14.1,3.7-21.3,3.7
			c-8.1,0-16.3-1.6-24-4.7l-35.3-14.4c-7.7-3.2-13.7-9.2-16.7-16.9c-3.1-7.8-2.8-16.2,0.6-23.8l7.9-17.3l-2,0.3l-9,19.6
			c-3.5,7.6-3.7,16-0.6,23.7c3.1,7.7,9,13.7,16.7,16.9l37.5,15.3c14.9,6.1,31.4,6.5,46.6,1.1l45.1-16.1c2.4-0.9,3.1-3,3.1-4.6
			C325.2,350.1,324.6,348.6,323.3,347.7z"/>
	</g>
	<path id="XMLID_17_" class="st1" d="M103.6,303.5c-1.9-1.5-3-3.8-3.2-6.3L83.9,9.1C83.8,7,84.4,5,85.7,3.3l-2.9,1.2
		C75.3,8.2,72,13.2,72.3,20.3l12.3,266c0.4,7.6,5.5,14.3,12.8,16.6l6.8,1C104,303.8,103.8,303.7,103.6,303.5z"/>
	<path id="XMLID_16_" class="st2" d="M399.4,254.1l-280,38.3c-2.3,0.3-4.3-1.4-4.4-3.6L99.2,17c-0.1-2.4,1.9-4.4,4.4-4.1l285.3,34.8
		c1.9,0.2,3.3,1.8,3.4,3.7l10.5,198.7C402.8,252.1,401.4,253.8,399.4,254.1z"/>
	<path class="st1" d="M399.3,43.6c-0.1-2.4-1.9-4.3-4.3-4.6L93.5,1.8c-0.3,0-0.6-0.1-0.8-0.1c-1.7,0-3.4,0.6-4.7,1.8
		C86.5,5,85.7,6.9,85.8,9l16.5,288.2c0.1,1.9,1,3.7,2.5,4.9c1.5,1.2,3.4,1.7,5.3,1.5l296.2-41c2.5-0.4,4.3-2.5,4.2-5.1L399.3,43.6z
		 M399.4,254.1l-280,38.3c-2.3,0.3-4.3-1.4-4.4-3.6L99.2,17c-0.1-2.4,1.9-4.4,4.4-4.1l285.3,34.8c1.9,0.2,3.3,1.8,3.4,3.7
		l10.5,198.7C402.8,252.1,401.4,253.8,399.4,254.1z"/>
	<path class="st3" d="M118.9,293.4c-1.1,0-2.2-0.4-3.1-1.1c-1-0.9-1.7-2.1-1.8-3.5L98.2,17.1c-0.1-1.4,0.5-2.8,1.5-3.8
		s2.5-1.5,3.9-1.3l285.3,34.8c2.4,0.3,4.2,2.2,4.3,4.6L403.7,250c0.1,2.5-1.7,4.7-4.2,5.1h0l-280,38.3
		C119.3,293.4,119.1,293.4,118.9,293.4z M103.1,13.9c-0.7,0-1.5,0.3-2,0.8c-0.6,0.6-1,1.4-0.9,2.3l15.8,271.7c0,0.8,0.4,1.6,1.1,2.1
		c0.6,0.5,1.4,0.7,2.3,0.6l280-38.3c1.5-0.2,2.6-1.5,2.5-3.1L391.3,51.4c-0.1-1.4-1.2-2.6-2.6-2.7L103.4,13.9
		C103.3,13.9,103.2,13.9,103.1,13.9z"/>
	<path class="st3" d="M118.9,293.4c-1.1,0-2.2-0.4-3.1-1.1c-1-0.9-1.7-2.1-1.8-3.5L98.2,17.1c-0.1-1.4,0.5-2.8,1.5-3.8
		s2.5-1.5,3.9-1.3l285.3,34.8c2.4,0.3,4.2,2.2,4.3,4.6L403.7,250c0.1,2.5-1.7,4.7-4.2,5.1h0l-280,38.3
		C119.3,293.4,119.1,293.4,118.9,293.4z M103.1,13.9c-0.7,0-1.5,0.3-2,0.8c-0.6,0.6-1,1.4-0.9,2.3l15.8,271.7c0,0.8,0.4,1.6,1.1,2.1
		c0.6,0.5,1.4,0.7,2.3,0.6l280-38.3c1.5-0.2,2.6-1.5,2.5-3.1L391.3,51.4c-0.1-1.4-1.2-2.6-2.6-2.7L103.4,13.9
		C103.3,13.9,103.2,13.9,103.1,13.9z"/>
	<polygon id="XMLID_9_" class="st0" points="280.2,197.9 133.3,205.3 128.2,102 274.3,107.8 	"/>
	<g>
		<path id="XMLID_8_" class="st4" d="M128.4,34.3c-2.4-0.3-4.5,1.7-4.3,4.1l1.8,29.5c0.2,2.9,2.5,5.3,5.4,5.5l142.4,9.5
			c2.3,0.2,4.3-1.8,4.2-4.1l-1.2-22.5c-0.2-2.8-2.3-5.2-5.2-5.5L128.4,34.3z"/>
	</g>
	<g>
		<path id="XMLID_7_" class="st4" d="M159.7,241.2c-0.9-0.7-2.3-1-4-0.8l-4.9,0.4l0.4,9.3l4.9-0.6c1.8-0.2,3.1-0.8,4-1.6
			c0.9-0.9,1.3-2,1.2-3.5C161.2,242.9,160.7,241.8,159.7,241.2z"/>
		<path class="st4" d="M208.2,225.4l-69.3,4.1c-2.2,0.1-3.9,1.9-3.7,4.1l1.4,28.8c0.2,3.4,3.1,5.9,6.5,5.5l69.1-7.7
			c2.1-0.2,3.6-2,3.5-4.1l-1.4-25.2C214.1,227.7,211.4,225.3,208.2,225.4z M164.3,248.3c-0.7,1.3-1.7,2.4-3,3.2
			c-1.4,0.8-3,1.4-4.9,1.6l-5.1,0.7l0.3,6.9l-4.3,0.7l-0.8-23.9l9.3-0.7c1.9-0.1,3.5,0.1,4.9,0.6c1.4,0.5,2.5,1.4,3.2,2.5
			c0.8,1.1,1.2,2.5,1.3,4.1C165.2,245.6,164.9,247,164.3,248.3z M182.6,252c-0.6,1.4-1.4,2.5-2.5,3.4c-1.1,0.9-2.4,1.5-3.9,1.7
			c-1.5,0.2-2.9,0.1-4.2-0.5c-1.3-0.6-2.3-1.5-3.1-2.7c-0.8-1.2-1.2-2.7-1.3-4.4c-0.1-1.7,0.2-3.2,0.8-4.6c0.6-1.4,1.5-2.5,2.7-3.3
			c1.2-0.8,2.5-1.3,4-1.5c1.5-0.1,2.8,0.1,4,0.7c1.2,0.6,2.1,1.5,2.9,2.6c0.7,1.2,1.1,2.5,1.2,4.1
			C183.3,249.2,183.1,250.7,182.6,252z M195.2,252.8c-1,1-2.4,1.7-4.2,2c-1.1,0.2-2.1,0.2-3.2,0c-1.1-0.2-1.9-0.5-2.6-0.9l1-3
			c0.6,0.4,1.4,0.7,2.3,0.8c0.9,0.2,1.7,0.2,2.5,0.1c1.8-0.3,2.7-1,2.6-2.1c0-0.5-0.3-0.9-0.8-1c-0.5-0.2-1.2-0.3-2.3-0.3
			c-1.1-0.1-2-0.2-2.7-0.3c-0.7-0.2-1.4-0.5-1.9-1.1c-0.6-0.6-0.9-1.4-1-2.6c-0.1-1.5,0.4-2.7,1.4-3.7c1-1,2.4-1.6,4.1-1.7
			c0.9-0.1,1.8,0,2.7,0.1c0.9,0.2,1.6,0.4,2.2,0.7l-0.9,2.8c-1.1-0.6-2.4-0.9-3.8-0.8c-0.9,0.1-1.6,0.3-2,0.7
			c-0.4,0.4-0.7,0.8-0.6,1.3c0,0.6,0.3,1,0.8,1.2c0.5,0.2,1.3,0.3,2.4,0.4c1,0.1,1.9,0.2,2.6,0.4c0.7,0.2,1.3,0.5,1.8,1.1
			c0.5,0.5,0.8,1.3,0.9,2.4C196.6,250.6,196.2,251.8,195.2,252.8z M205.3,252.3c-0.4,0.2-0.9,0.4-1.4,0.5c-1.3,0.2-2.4-0.1-3.2-0.8
			c-0.8-0.8-1.3-2-1.4-3.6l-0.6-7.2l-2,0.2l-0.2-2.8l2-0.2l-0.3-3.4l2.8-0.2l0.3,3.3l3.1-0.3l0.2,2.7l-3.1,0.3l0.6,7
			c0.1,0.7,0.2,1.3,0.6,1.6c0.3,0.3,0.7,0.5,1.3,0.4c0.6-0.1,1.1-0.4,1.5-0.8l1,2.3C206.2,251.8,205.8,252.1,205.3,252.3z"/>
		<path id="XMLID_1_" class="st4" d="M175.3,243.4c-1.3,0.1-2.3,0.7-3.1,1.8c-0.8,1-1.1,2.4-1,3.9c0.1,1.6,0.6,2.8,1.5,3.6
			c0.9,0.8,2,1.2,3.3,1c1.3-0.2,2.3-0.8,3-1.9c0.7-1,1.1-2.3,1-3.9c-0.1-1.5-0.6-2.7-1.4-3.5C177.6,243.7,176.6,243.3,175.3,243.4z"
			/>
	</g>
</g>
</svg>
