<svg width="20" height="20" viewBox="0 0 18 18" fill="#ffffff" xmlns="http://www.w3.org/2000/svg"><path d="M6.02 15.01c6.042 0 9.345-5.007 9.345-9.345 0-.144 0-.287-.007-.423A6.728 6.728 0 0 0 17 3.54a6.666 6.666 0 0 1-1.887.518 3.283 3.283 0 0 0 1.444-1.819 6.652 6.652 0 0 1-2.084.797 3.285 3.285 0 0 0-5.592 2.997A9.318 9.318 0 0 1 2.11 2.6a3.295 3.295 0 0 0-.443 1.649 3.27 3.27 0 0 0 1.464 2.731 3.226 3.226 0 0 1-1.485-.409v.041a3.288 3.288 0 0 0 2.636 3.222 3.274 3.274 0 0 1-1.485.055 3.28 3.28 0 0 0 3.065 2.281A6.602 6.602 0 0 1 1 13.525a9.15 9.15 0 0 0 5.02 1.485z"></path></svg>
