<?xml version="1.0" encoding="utf-8"?>
<svg version="1.1" id="Layer_1" xmlns="http://www.w3.org/2000/svg" xmlns:xlink="http://www.w3.org/1999/xlink" x="0px" y="0px"
	 viewBox="0 0 70 70" style="enable-background:new 0 0 70 70;" xml:space="preserve">
<style type="text/css">
	.st0{fill:#6ADB7F;}
	.st1{fill:#FFFFFF;}
</style>
<circle id="XMLID_3_" class="st0" cx="35" cy="35" r="35"/>
<path class="st1" d="M50.8,35.2l5.3-1.2c-0.6-3.4-0.3-1.9-1-5.4l-5.4,0.7c-1.2-2.1-1.3-2.3-2.5-4.4l3.3-4.3
	c-2.7-2.2-1.5-1.3-4.2-3.5l-3.7,4c-2.3-0.8-2.5-0.9-4.8-1.7L37.7,14c-3.5,0-2,0-5.5,0L32,19.4c-2.3,0.8-2.5,0.9-4.8,1.7l-3.7-4
	c-2.7,2.2-1.5,1.3-4.2,3.5l3.3,4.3c-1.2,2.1-1.3,2.3-2.5,4.4l-5.4-0.7c-0.6,3.4-0.3,1.9-1,5.4l5.3,1.2c0.4,2.4,0.5,2.6,0.9,5
	l-4.6,2.9c1.7,3,1,1.7,2.7,4.7l4.8-2.5c1.9,1.6,2,1.7,3.9,3.3l-1.6,5.2c3.3,1.2,1.9,0.9,5.1,2.1l2.1-4.8c2.4,0,2.6,0,5.1,0l2.1,4.8
	c3.3-1.2,1.9-0.8,5.1-2l-1.6-5.3c1.9-1.6,2-1.7,3.9-3.3l4.8,2.5c1.7-3,1-1.7,2.7-4.7L50,40.2C50.4,37.8,50.4,37.6,50.8,35.2z
	 M35,43.6c-4.9,0-8.8-4-8.8-8.8c0-4.9,4-8.8,8.8-8.8c4.9,0,8.8,4,8.8,8.8C43.8,39.7,39.9,43.6,35,43.6z">
<animateTransform attributeName="transform"
                attributeType="XML"
                  type="rotate"
                  from="0 35 35"
                  to="360 35 35"
                  dur="20s"
                  repeatCount="indefinite" />

    </path>
</svg>
