<?xml version="1.0" encoding="utf-8"?>
<!-- Generator: Adobe Illustrator 19.0.0, SVG Export Plug-In . SVG Version: 6.00 Build 0)  -->
<svg version="1.1" id="Layer_1" xmlns="http://www.w3.org/2000/svg" xmlns:xlink="http://www.w3.org/1999/xlink" x="0px" y="0px"
	 viewBox="0 0 450 405" style="enable-background:new 0 0 450 405;" xml:space="preserve">
<style type="text/css">
	.st0{fill:#E5E5E5;}
	.st1{fill:#6ADB7F;}
	.st2{fill:#13D8CE;}
	.st3{fill:#777777;}
</style>
<g>
	<path id="XMLID_7_" class="st0" d="M392.6,42.9c61.9,75.6,34,199.3-73.3,287.1s-194.7,97.2-256.6,21.6S12,181.1,119.3,93.3
		S330.7-32.7,392.6,42.9z"/>
	<path class="st1" d="M296.1,253.6c1.3-12.5,0.7-7,2.1-19.6l-20.5-3c-1.1-10.1-0.9-8.8-2-19l19.4-7.2c-3.9-12-2.2-6.7-6.1-18.7
		l-19.9,5.6c-5.1-8.8-4.4-7.7-9.5-16.5l14.8-14.5c-8.4-9.4-4.7-5.3-13.2-14.6l-15.9,13.2c-8.3-6-7.2-5.2-15.4-11.2l7.6-19.2
		c-11.5-5.1-6.5-2.9-18-8l-9.2,18.5c-10-2.1-8.7-0.4-18.7-2.5l-0.9-19.3c-12.6,0-7.1,0-19.7,0l-0.9,19.3c-10,2.1-8.7,1.1-18.7,3.3
		l-9.2-18.9c-11.5,5.1-6.5,2.7-18,7.8l7.6,19.2c-8.3,6-7.2,5.2-15.4,11.2l-15.9-13.2c-8.4,9.4-4.7,5.3-13.2,14.6l14.8,14.5
		c-5.1,8.8-4.4,7.7-9.5,16.5l-19.9-5.6c-3.9,12-2.2,6.7-6.1,18.7l19.4,7.2c-1.1,10.1-0.9,8.8-2,19l-20.5,3c1.3,12.5,0.7,7,2.1,19.6
		l20.7-1.3c3.2,9.7,2.7,8.5,5.9,18.2l-17.5,11.1c6.3,10.9,3.5,6.1,9.8,17.1l18.3-9.6c6.8,7.6,6,6.6,12.8,14.2L104,320.5
		c10.2,7.4,5.7,4.2,15.9,11.6l12.8-16.2c9.3,4.1,8.1,3.6,17.4,7.8l-3.5,20.4c12.3,2.6,6.9,1.7,19.3,4.3l5.1-19.8
		c10.2,0,8.9,0,19.1,0l5.1,19.8c12.3-2.6,6.9-1.6,19.3-4.2l-3.5-20.5c9.3-4.1,8.1-3.6,17.4-7.8l12.8,16.2
		c10.2-7.4,5.7-4.2,15.9-11.6L246,303.2c6.8-7.6,6-6.6,12.8-14.2l18.3,9.6c6.3-10.9,3.5-6.1,9.8-17.1l-17.5-11.1
		c3.2-9.7,2.7-8.5,5.9-18.2L296.1,253.6z M180.8,300.4c-38.1,0-69-30.9-69-69c0-38.1,30.9-69,69-69s69,30.9,69,69
		C249.8,269.5,218.9,300.4,180.8,300.4z"/>
	<path class="st2" d="M359.6,106.2l17.9-3.9c-2-11.5-1.1-6.5-3.2-18l-18.1,2.4c-4.1-7.1-4.4-7.6-8.5-14.7l11.2-14.5
		c-9-7.5-5.1-4.2-14-11.8l-12.3,13.5c-7.7-2.8-8.2-2.8-15.9-5.6l-0.8-18.1c-11.7,0-6.6,0-18.3,0l-0.8,18.1
		c-7.7,2.8-8.2,2.9-15.9,5.7l-12.3-13.5c-9,7.5-5.1,4.2-14,11.8L265.5,72c-4.1,7.1-4.4,7.6-8.5,14.7l-18.1-2.4
		c-2,11.5-1.1,6.5-3.2,18l17.9,3.9c1.4,8.1,1.5,8.6,2.9,16.7l-15.4,9.8c5.9,10.1,3.3,5.7,9.2,15.9l16.2-8.5c6.3,5.3,6.7,5.6,13,10.9
		l-5.5,17.4c11,4,6.2,3.6,17.2,7.6l7-15.6c8.2,0,8.8,0,16.9,0l7,15.6c11-4,6.2-2.9,17.2-6.9l-5.5-17.8c6.3-5.3,6.7-5.8,13-11.1
		l16.2,8.4c5.9-10.1,3.3-5.8,9.2-15.9l-15.4-9.8C358.1,114.9,358.2,114.3,359.6,106.2z M306.6,134.5c-16.3,0-29.6-13.2-29.6-29.6
		c0-16.3,13.2-29.6,29.6-29.6c16.3,0,29.6,13.2,29.6,29.6C336.2,121.2,322.9,134.5,306.6,134.5z"/>
	<path class="st3" d="M241.1,60.4c-0.5-3.2-0.7-4.5-1.1-7.6l10.7-11c-3-4.4-2.4-3.5-5.3-7.9l-14.2,5.8c-2.8-1.6-3.9-2.3-6.7-3.9
		l-1.9-15.2c-5.3-0.4-4.2-0.3-9.5-0.8l-4.3,14.7c-3,1.2-4.2,1.6-7.2,2.8l-13.1-8c-3.6,3.9-2.9,3.1-6.5,7l8.8,12.5
		c-1,3.1-1.4,4.3-2.3,7.4l-14.4,5.2c0.8,5.2,0.6,4.2,1.4,9.4l15.3,0.9c1.8,2.7,2.5,3.7,4.3,6.4l-4.9,14.5c4.6,2.7,3.7,2.1,8.2,4.8
		l10.3-11.4c3.2,0.3,4.5,0.4,7.7,0.6l8.3,12.9c4.9-1.9,4-1.5,8.9-3.4L231.1,81c2.2-2.3,3.1-3.3,5.3-5.6l15.3,1.5
		c1.6-5,1.3-4.1,2.8-9.1L241.1,60.4z M214.3,73.9c-7.8,0-14.2-6.3-14.2-14.2s6.3-14.2,14.2-14.2s14.2,6.3,14.2,14.2
		S222.2,73.9,214.3,73.9z"/>
</g>
</svg>
